<?xml version="1.0" standalone="no"?>
<!DOCTYPE svg PUBLIC "-//W3C//DTD SVG 20010904//EN"
 "http://www.w3.org/TR/2001/REC-SVG-20010904/DTD/svg10.dtd">
<svg version="1.0" xmlns="http://www.w3.org/2000/svg"
 width="328.000000pt" height="223.000000pt" viewBox="0 0 328.000000 223.000000"
 preserveAspectRatio="xMidYMid meet">
<metadata>
Created by potrace 1.15, written by Peter Selinger 2001-2017
</metadata>
<g transform="translate(0.000000,223.000000) scale(0.100000,-0.100000)"
fill="#000000" stroke="none">
<path d="M0 1115 l0 -1115 1640 0 1640 0 0 1115 0 1115 -1640 0 -1640 0 0
-1115z m758 845 l33 -20 -3 -345 c-2 -190 -1 -345 1 -345 2 0 69 37 148 83
l143 82 0 178 c0 97 2 177 4 177 2 0 84 -47 182 -104 l179 -104 3 -39 3 -40
-123 -70 -123 -70 -3 -452 c-1 -294 1 -451 8 -451 5 0 32 14 60 31 l50 31 0
383 0 384 61 36 c33 19 62 35 65 35 2 0 3 -205 2 -456 l-3 -456 -153 -89 -153
-90 -29 18 -30 17 0 348 c0 191 -2 348 -6 348 -3 0 -68 -36 -145 -81 l-139
-81 0 -179 c0 -98 -3 -179 -6 -179 -3 0 -89 48 -190 106 l-184 106 0 36 c0 37
1 38 123 108 l122 70 3 452 c1 249 -1 452 -4 452 -4 0 -31 -14 -60 -31 l-54
-30 0 -385 0 -384 -37 -23 c-21 -13 -48 -29 -60 -36 l-23 -11 -2 455 -3 456
150 88 c83 49 152 89 155 90 3 0 20 -8 38 -19z m1325 -683 c51 -30 73 -57 87
-108 12 -41 -3 -95 -30 -109 -79 -42 -155 43 -100 113 l20 25 -25 20 c-33 27
-93 36 -142 23 -63 -17 -123 -92 -138 -174 l-7 -37 112 0 c98 0 111 -2 106
-16 -3 -9 -6 -20 -6 -25 0 -5 -50 -9 -110 -9 l-111 0 3 -57 3 -58 98 -3 c96
-3 97 -3 97 -27 0 -25 -1 -25 -90 -25 -104 0 -105 -1 -65 -80 35 -69 84 -100
156 -100 67 0 114 27 144 83 18 33 24 37 58 37 36 0 37 -1 31 -27 -11 -50 -57
-106 -109 -132 -42 -22 -63 -26 -140 -26 -81 0 -95 3 -144 30 -65 36 -113 90
-142 161 l-23 54 -63 0 c-62 0 -69 4 -57 34 5 12 20 16 60 16 l54 0 0 60 0 60
-45 0 c-41 0 -45 2 -45 25 0 23 3 25 49 25 48 0 49 0 56 37 17 90 82 173 170
215 55 27 67 29 150 26 78 -3 98 -8 138 -31z m405 -239 c3 -24 0 -28 -22 -28
-37 0 -56 -10 -56 -30 0 -16 104 -312 117 -334 3 -5 35 69 70 165 60 161 63
174 47 186 -10 7 -30 13 -46 13 -24 0 -28 4 -28 30 l0 30 115 0 115 0 0 -27
c0 -22 -8 -31 -33 -43 -29 -14 -37 -28 -85 -155 -124 -330 -159 -410 -205
-462 -60 -69 -141 -84 -196 -37 -73 61 -7 183 68 126 20 -15 26 -28 25 -56 -1
-20 3 -36 8 -36 20 0 65 57 83 104 18 46 18 50 2 75 -27 42 -69 136 -127 281
-58 145 -73 170 -102 170 -13 0 -18 8 -18 30 l0 31 133 -3 132 -3 3 -27z"/>
<path d="M923 1181 l-132 -76 -1 -67 c0 -38 2 -68 5 -68 3 0 68 36 145 81
l140 81 0 64 c0 45 -4 64 -12 63 -7 -1 -72 -36 -145 -78z"/>
</g>
</svg>
